<svg width="81" height="81" viewBox="0 0 81 81" fill="none" xmlns="http://www.w3.org/2000/svg">
<path d="M40.5 0C18.144 0 0 18.144 0 40.5C0 62.856 18.144 81 40.5 81C62.856 81 81 62.856 81 40.5C81 18.144 62.856 0 40.5 0ZM40.5 16.2C48.3165 16.2 54.675 22.5585 54.675 30.375C54.675 38.1915 48.3165 44.55 40.5 44.55C32.6835 44.55 26.325 38.1915 26.325 30.375C26.325 22.5585 32.6835 16.2 40.5 16.2ZM40.5 72.9C32.2785 72.9 22.5585 69.579 15.633 61.236C22.4775 55.89 31.104 52.65 40.5 52.65C49.896 52.65 58.5225 55.89 65.367 61.236C58.4415 69.579 48.7215 72.9 40.5 72.9Z" fill="#D9D9D9"/>
</svg>
